<?xml version="1.0" encoding="UTF-8"?>
<svg id="_レイヤー_1" data-name="レイヤー_1" xmlns="http://www.w3.org/2000/svg" version="1.1" xmlns:xlink="http://www.w3.org/1999/xlink" viewBox="0 0 202.11 33">
  <!-- Generator: Adobe Illustrator 29.5.1, SVG Export Plug-In . SVG Version: 2.1.0 Build 141)  -->
  <defs>
    <style>
      .st0 {
        fill: url(#_新規グラデーションスウォッチ_57);
      }

      .st1 {
        fill: url(#_新規グラデーションスウォッチ_52);
      }

      .st2 {
        fill: url(#_新規グラデーションスウォッチ_510);
      }

      .st3 {
        fill: url(#_新規グラデーションスウォッチ_59);
      }

      .st4 {
        fill: url(#_新規グラデーションスウォッチ_53);
      }

      .st5 {
        fill: url(#_新規グラデーションスウォッチ_55);
      }

      .st6 {
        fill: #fadce2;
        filter: url(#drop-shadow-1);
      }

      .st7 {
        fill: url(#_新規グラデーションスウォッチ_5);
      }

      .st8 {
        fill: url(#_新規グラデーションスウォッチ_54);
      }

      .st9 {
        fill: #601986;
      }

      .st10 {
        fill: url(#_新規グラデーションスウォッチ_511);
      }

      .st11 {
        fill: url(#_新規グラデーションスウォッチ_58);
      }

      .st12 {
        fill: url(#_新規グラデーションスウォッチ_56);
      }

      .st13 {
        fill: url(#_新規グラデーションスウォッチ_51);
      }
    </style>
    <linearGradient id="_新規グラデーションスウォッチ_5" data-name="新規グラデーションスウォッチ 5" x1="44.92" y1="14.28" x2="146.62" y2="14.28" gradientUnits="userSpaceOnUse">
      <stop offset="0" stop-color="#e4007f"/>
      <stop offset=".17" stop-color="#e61673"/>
      <stop offset=".49" stop-color="#920783"/>
      <stop offset=".77" stop-color="#601986"/>
      <stop offset="1" stop-color="#601986"/>
    </linearGradient>
    <linearGradient id="_新規グラデーションスウォッチ_51" data-name="新規グラデーションスウォッチ 5" x1="44.92" y1="14.15" x2="146.62" y2="14.15" xlink:href="#_新規グラデーションスウォッチ_5"/>
    <linearGradient id="_新規グラデーションスウォッチ_52" data-name="新規グラデーションスウォッチ 5" x1="44.92" y1="16.87" x2="146.62" y2="16.87" xlink:href="#_新規グラデーションスウォッチ_5"/>
    <linearGradient id="_新規グラデーションスウォッチ_53" data-name="新規グラデーションスウォッチ 5" x1="44.92" y1="18.45" x2="146.62" y2="18.45" xlink:href="#_新規グラデーションスウォッチ_5"/>
    <linearGradient id="_新規グラデーションスウォッチ_54" data-name="新規グラデーションスウォッチ 5" x1="49.92" y1="14.29" x2="151.62" y2="14.29" xlink:href="#_新規グラデーションスウォッチ_5"/>
    <linearGradient id="_新規グラデーションスウォッチ_55" data-name="新規グラデーションスウォッチ 5" x1="49.92" y1="14.14" x2="151.62" y2="14.14" xlink:href="#_新規グラデーションスウォッチ_5"/>
    <linearGradient id="_新規グラデーションスウォッチ_56" data-name="新規グラデーションスウォッチ 5" x1="49.92" y1="16.87" x2="151.62" y2="16.87" xlink:href="#_新規グラデーションスウォッチ_5"/>
    <linearGradient id="_新規グラデーションスウォッチ_57" data-name="新規グラデーションスウォッチ 5" x1="49.92" y1="16.87" x2="151.62" y2="16.87" xlink:href="#_新規グラデーションスウォッチ_5"/>
    <linearGradient id="_新規グラデーションスウォッチ_58" data-name="新規グラデーションスウォッチ 5" x1="49.92" y1="16.87" x2="151.62" y2="16.87" xlink:href="#_新規グラデーションスウォッチ_5"/>
    <linearGradient id="_新規グラデーションスウォッチ_59" data-name="新規グラデーションスウォッチ 5" x1="49.92" y1="15.92" x2="151.62" y2="15.92" xlink:href="#_新規グラデーションスウォッチ_5"/>
    <filter id="drop-shadow-1" x="2.56" y=".78" width="31.44" height="31.44" filterUnits="userSpaceOnUse">
      <feOffset dx="1.7" dy="1.7"/>
      <feGaussianBlur result="blur" stdDeviation="1.02"/>
      <feFlood flood-color="#1a1320" flood-opacity=".25"/>
      <feComposite in2="blur" operator="in"/>
      <feComposite in="SourceGraphic"/>
    </filter>
    <linearGradient id="_新規グラデーションスウォッチ_510" data-name="新規グラデーションスウォッチ 5" x1="7.26" y1="14.69" x2="21.75" y2="14.69" xlink:href="#_新規グラデーションスウォッチ_5"/>
    <linearGradient id="_新規グラデーションスウォッチ_511" data-name="新規グラデーションスウォッチ 5" x1="7.27" y1="14.7" x2="21.75" y2="14.7" xlink:href="#_新規グラデーションスウォッチ_5"/>
  </defs>
  <g>
    <g>
      <path class="st7" d="M41.93,21.14c-.09.09-.2.14-.32.14-.15,0-.22-.09-.24-.28l-.1-1.88c-.03-.47-.06-.9-.09-1.26-.03-.37-.05-.58-.05-.63,0-.14.09-.22.28-.22.07,0,.13.02.19.05.06.03.1.1.11.21.03.12.09.36.2.71.11.36.29.74.55,1.17.16.22.34.44.53.66.2.22.43.41.69.57.26.16.56.3.9.4.34.1.71.15,1.14.15.71,0,1.27-.11,1.69-.32.41-.21.73-.46.95-.74.22-.28.36-.58.41-.89.06-.31.09-.56.09-.76,0-.47-.11-.88-.32-1.21s-.5-.62-.88-.88c-.38-.26-.82-.48-1.33-.68-.51-.2-1.07-.41-1.68-.63-.4-.14-.79-.31-1.2-.48-.4-.18-.76-.4-1.09-.66-.32-.26-.58-.59-.78-.98-.2-.39-.3-.87-.3-1.43,0-.75.16-1.39.47-1.93s.71-.97,1.19-1.3c.47-.34.98-.58,1.53-.74.55-.16,1.05-.24,1.51-.24s.87.04,1.22.13c.35.09.65.18.91.3.26.11.47.21.64.3.17.09.32.13.43.13.08,0,.14-.02.2-.07.05-.05.1-.1.15-.15.05-.05.1-.1.15-.15.05-.05.12-.07.2-.07.14,0,.22.08.22.24,0,.12,0,.37.02.74.01.38.03.77.06,1.2.03.38.05.73.08,1.05.03.32.04.54.04.67,0,.08-.02.13-.07.16-.05.03-.1.04-.17.04-.09,0-.16-.02-.19-.05-.03-.03-.06-.12-.09-.25-.18-.71-.4-1.3-.65-1.78-.25-.47-.54-.85-.86-1.13-.32-.28-.68-.47-1.06-.59s-.79-.18-1.22-.18c-.4,0-.77.08-1.13.23-.36.15-.67.36-.95.61-.28.26-.49.56-.65.9-.16.34-.24.7-.24,1.09,0,.42.08.78.23,1.07.15.29.36.53.61.73.26.2.56.36.9.49.34.13.71.26,1.11.38.55.17,1.12.36,1.7.56.58.2,1.1.47,1.56.8.46.33.84.73,1.14,1.21s.44,1.07.44,1.78c0,.58-.12,1.12-.35,1.61-.23.49-.56.93-.99,1.29-.43.37-.94.66-1.54.86-.6.2-1.27.31-2.01.31-.7,0-1.27-.08-1.71-.24-.44-.16-.73-.26-.88-.32-.22-.11-.39-.2-.5-.28-.11-.08-.21-.12-.31-.12-.08,0-.14.04-.19.11-.05.07-.09.14-.13.19l-.2.3Z"/>
      <path class="st13" d="M56.77,19.46c0,.46.05.79.16,1,.11.2.33.31.67.31.18,0,.3.02.35.07.05.05.07.1.07.17,0,.04-.03.08-.08.12-.05.04-.16.06-.32.06-.08,0-.19,0-.33,0-.14,0-.29,0-.44,0s-.32,0-.48,0c-.16,0-.31,0-.42,0-.26,0-.54,0-.84.02-.3.01-.54.02-.72.02-.26,0-.4-.07-.4-.22,0-.07.03-.12.08-.15.05-.03.15-.05.3-.05.3,0,.52-.11.65-.34.13-.23.2-.6.2-1.12v-10.05c0-.31-.06-.52-.19-.63-.13-.11-.29-.2-.5-.27-.29-.11-.43-.22-.43-.34,0-.09.05-.16.16-.22l1.96-.66c.16-.03.27-.05.34-.05.16,0,.24.09.24.28v6.4c.11-.12.25-.25.43-.41.18-.15.4-.3.65-.43.25-.14.53-.26.85-.36.32-.1.65-.15,1.01-.15s.72.04,1.07.13c.34.09.65.24.92.47.27.23.48.55.64.95.16.4.24.92.24,1.55v3.87c0,.47.06.82.18,1.04.12.22.33.33.63.33.18,0,.3.02.36.06.05.04.08.1.08.18,0,.05-.02.1-.06.14-.04.04-.13.06-.28.06-.12,0-.31,0-.57-.03-.26-.02-.59-.03-.97-.03s-.72,0-1.01.03c-.29.02-.54.03-.75.03-.18,0-.3-.02-.34-.06-.04-.04-.06-.09-.06-.14,0-.08.02-.14.06-.18.04-.04.13-.06.28-.06.34,0,.58-.1.71-.29.13-.19.2-.5.2-.92v-3.71c0-.97-.16-1.66-.48-2.06-.32-.4-.81-.6-1.45-.6-.29,0-.56.05-.81.15-.25.1-.47.21-.67.35-.2.13-.37.27-.51.41-.15.15-.26.26-.34.36v5.02Z"/>
      <path class="st1" d="M71.25,21.32c-.61,0-1.18-.11-1.71-.33-.53-.22-1-.52-1.39-.91-.4-.39-.71-.86-.94-1.4-.23-.55-.35-1.15-.35-1.81s.12-1.26.35-1.81c.23-.55.54-1.01.94-1.4.4-.39.86-.69,1.39-.91.53-.22,1.1-.33,1.71-.33s1.16.11,1.69.33c.53.22,1,.52,1.39.91.4.39.71.86.94,1.4.23.55.35,1.15.35,1.81s-.12,1.26-.35,1.81c-.23.55-.54,1.01-.94,1.4-.4.39-.86.69-1.39.91-.53.22-1.1.33-1.69.33ZM71.25,20.86c.57,0,1.02-.14,1.37-.42.35-.28.61-.63.79-1.05s.3-.85.36-1.3c.06-.45.09-.86.09-1.22s-.03-.77-.09-1.23c-.06-.47-.18-.91-.36-1.31-.18-.41-.44-.75-.79-1.04-.35-.28-.81-.42-1.37-.42s-1.04.14-1.38.42c-.34.28-.61.63-.79,1.04-.18.41-.31.85-.37,1.31-.06.47-.09.88-.09,1.23s.03.76.09,1.22c.06.45.18.89.37,1.3.18.41.45.76.79,1.05.34.28.8.42,1.38.42Z"/>
      <path class="st4" d="M79.17,24.07c.26,0,.44-.07.54-.2.1-.13.15-.43.15-.89v-8.24c0-.24-.04-.42-.13-.54-.09-.12-.25-.23-.5-.33-.17-.07-.3-.12-.38-.16-.08-.04-.12-.09-.12-.16,0-.09.05-.16.16-.22l1.96-.85c.16-.04.26-.06.32-.06.17,0,.26.09.26.28v.71c.28-.24.64-.46,1.08-.67.44-.21.97-.32,1.59-.32.45,0,.9.08,1.36.25.46.16.88.42,1.24.76.37.34.67.78.9,1.3.23.53.35,1.15.35,1.88,0,.84-.14,1.56-.41,2.15-.28.59-.63,1.07-1.06,1.44-.43.37-.9.64-1.41.8-.51.16-1.01.25-1.48.25-.55,0-1.02-.07-1.4-.22-.38-.14-.63-.26-.75-.34v2.31c0,.45.08.73.24.86.16.13.43.19.81.19.25,0,.41.02.46.06.06.04.09.09.09.16,0,.05-.03.1-.08.14-.05.04-.16.06-.32.06-.08,0-.21,0-.39,0-.18,0-.37,0-.57,0s-.41,0-.6,0c-.2,0-.36,0-.47,0-.26,0-.57,0-.93.02-.36.01-.65.02-.87.02s-.34-.07-.34-.22c0-.04.02-.08.07-.13.05-.05.12-.07.23-.07h.41ZM81.42,18.04c0,.87.19,1.54.57,2.03.38.48.91.72,1.58.72.38,0,.74-.08,1.08-.24.34-.16.63-.39.89-.7.26-.31.46-.69.61-1.16.15-.46.23-.99.23-1.6s-.08-1.13-.24-1.6c-.16-.47-.37-.88-.63-1.22-.26-.34-.58-.6-.94-.78-.36-.18-.74-.28-1.14-.28-.47,0-.88.09-1.22.26-.34.17-.61.33-.79.47v4.09Z"/>
    </g>
    <g>
      <path class="st8" d="M98.25,19.07c0,.28.01.52.04.73.03.21.09.38.19.51.1.13.25.23.44.3.2.07.46.1.79.1.2,0,.33.02.39.07.06.05.09.1.09.17,0,.05-.02.11-.05.16-.03.05-.14.08-.31.08s-.45,0-.85-.02c-.4-.01-.97-.02-1.72-.02s-1.29,0-1.65.02c-.36.01-.63.02-.8.02s-.28-.03-.32-.08c-.04-.05-.06-.11-.06-.16,0-.07.03-.12.1-.17.07-.05.19-.07.38-.07.42,0,.75-.09.99-.26.24-.17.36-.5.36-.99v-10.37c0-.5-.12-.83-.36-1-.24-.16-.57-.25-.99-.25-.18,0-.31-.02-.38-.07-.07-.05-.1-.1-.1-.17s.02-.12.06-.17c.04-.05.14-.07.32-.07s.44,0,.8,0c.36,0,.91,0,1.65,0s1.32,0,1.72,0c.4,0,.68,0,.85,0s.27.02.31.07c.03.05.05.1.05.17s-.03.12-.09.17c-.06.05-.19.07-.39.07-.33,0-.59.03-.79.1-.2.07-.35.16-.44.3-.1.13-.16.3-.19.5-.03.2-.04.44-.04.72v5.08l4.33-4.19c.14-.13.29-.27.43-.41.14-.14.28-.28.4-.41s.22-.28.3-.43c.08-.15.12-.31.12-.48,0-.26-.1-.46-.29-.58-.19-.13-.4-.19-.62-.19-.18,0-.31-.03-.38-.09-.07-.06-.1-.12-.1-.17,0-.14.09-.22.26-.22.21,0,.49,0,.85,0,.36,0,.8,0,1.34,0s1.02,0,1.47,0c.45,0,.8,0,1.04,0,.2,0,.3.07.3.22,0,.05-.02.11-.06.16-.04.05-.15.09-.32.1-.13.01-.31.05-.54.12-.23.07-.44.15-.64.26-.24.13-.49.3-.75.5s-.53.43-.81.67c-.28.24-.55.49-.82.74-.27.25-.52.49-.74.71l-2.35,2.29,5.14,6.18c.33.4.72.72,1.19.97.46.25.9.39,1.3.41.22.01.34.1.34.26,0,.05-.03.11-.08.17-.05.06-.14.09-.26.09-.29,0-.6-.01-.92-.04-.32-.03-.62-.04-.88-.04h-.85c-.29,0-.57,0-.85.02l-5.57-6.66-.97.93v3.64Z"/>
      <path class="st5" d="M113.84,19.46c0,.46.05.79.16,1,.11.2.32.31.65.31.18,0,.3.02.36.06.05.04.08.09.08.16,0,.04-.02.08-.07.13s-.14.07-.27.07c-.09,0-.21,0-.36,0-.15,0-.3,0-.46,0s-.33,0-.49,0c-.16,0-.31,0-.44,0-.26,0-.54,0-.83.02-.29.01-.53.02-.71.02-.28,0-.42-.07-.42-.22,0-.13.13-.2.4-.2.3,0,.52-.11.65-.34.13-.22.2-.59.2-1.11v-9.96c0-.3-.07-.51-.2-.62-.13-.11-.3-.2-.49-.27-.17-.07-.29-.12-.35-.17-.06-.05-.09-.1-.09-.17,0-.09.05-.16.16-.22l1.96-.77c.16-.04.27-.06.34-.06.16,0,.24.09.24.28v12.09Z"/>
      <path class="st12" d="M122.54,21.32c-.61,0-1.18-.11-1.71-.33-.53-.22-1-.52-1.39-.91-.4-.39-.71-.86-.94-1.4-.23-.55-.35-1.15-.35-1.81s.12-1.26.35-1.81c.23-.55.54-1.01.94-1.4.4-.39.86-.69,1.39-.91.53-.22,1.1-.33,1.71-.33s1.16.11,1.69.33c.53.22,1,.52,1.39.91.4.39.71.86.94,1.4.23.55.35,1.15.35,1.81s-.12,1.26-.35,1.81c-.23.55-.54,1.01-.94,1.4-.4.39-.86.69-1.39.91-.53.22-1.1.33-1.69.33ZM122.54,20.86c.57,0,1.02-.14,1.37-.42.35-.28.61-.63.79-1.05s.3-.85.36-1.3c.06-.45.09-.86.09-1.22s-.03-.77-.09-1.23c-.06-.47-.18-.91-.36-1.31-.18-.41-.44-.75-.79-1.04-.35-.28-.81-.42-1.37-.42s-1.04.14-1.38.42c-.34.28-.61.63-.79,1.04-.18.41-.31.85-.37,1.31-.06.47-.09.88-.09,1.23s.03.76.09,1.22c.06.45.18.89.37,1.3.18.41.45.76.79,1.05.34.28.8.42,1.38.42Z"/>
      <path class="st0" d="M130.28,18.55c0-.13.07-.2.2-.2.07,0,.12.03.15.09s.06.12.09.19c.05.18.13.4.22.65.09.25.22.49.39.73.16.24.37.44.6.6.24.16.53.25.87.25.51,0,.95-.12,1.31-.35.36-.23.54-.64.54-1.22,0-.43-.13-.77-.38-1-.25-.23-.56-.44-.93-.62l-1.42-.65c-.15-.07-.31-.16-.5-.28-.19-.12-.37-.27-.53-.44-.16-.18-.31-.39-.42-.64-.12-.25-.18-.54-.18-.87,0-.41.09-.76.27-1.06s.4-.54.67-.74c.27-.2.57-.34.89-.43.32-.09.64-.14.94-.14.49,0,.93.04,1.32.12.4.08.7.16.93.26.2.08.3.19.3.34l.08,1.64c0,.05-.01.1-.04.15-.03.05-.07.07-.14.07-.11,0-.2-.11-.3-.32-.46-1.17-1.23-1.76-2.31-1.76-.16,0-.32.02-.49.07-.17.05-.33.12-.48.22-.15.1-.27.23-.37.39-.09.16-.14.34-.14.55,0,.36.13.65.38.87.25.22.55.41.89.55l1.4.63c.18.08.39.19.62.34.23.14.45.32.65.52.2.2.38.45.51.73.14.28.21.6.21.96,0,.55-.12,1-.37,1.33-.24.34-.54.6-.89.78-.35.18-.71.31-1.1.37-.38.06-.7.09-.97.09-.57,0-1.03-.04-1.4-.13-.37-.09-.61-.15-.73-.21-.09-.04-.16-.08-.22-.13-.05-.05-.09-.12-.12-.23v-2.07Z"/>
      <path class="st11" d="M141.03,15.39c-.03.15-.04.27-.05.39,0,.11,0,.24,0,.39,0,.54.06,1.04.18,1.51.12.47.31.88.56,1.23.26.36.59.64.99.84.4.2.88.31,1.43.31.5,0,.92-.08,1.25-.25.34-.16.61-.36.81-.57.2-.22.36-.43.47-.63.11-.2.19-.35.25-.44.03-.05.06-.11.09-.17.03-.06.09-.09.17-.09.13,0,.2.07.2.2,0,.07-.03.21-.08.43-.05.22-.12.41-.22.57-.38.75-.87,1.31-1.46,1.67-.59.36-1.27.54-2.04.54-.66,0-1.24-.11-1.75-.34s-.94-.54-1.29-.94c-.36-.4-.63-.88-.81-1.43-.18-.55-.28-1.15-.28-1.8,0-.51.09-1.03.27-1.56.18-.53.44-1,.79-1.41.35-.41.77-.75,1.28-1.02.5-.26,1.07-.4,1.72-.4s1.2.1,1.67.31c.47.2.85.45,1.14.73.29.28.5.57.64.86.14.29.21.52.21.69,0,.11-.02.19-.07.27-.05.07-.15.11-.31.11h-5.75ZM145.18,14.9c0-.14-.03-.33-.08-.55-.05-.22-.14-.44-.27-.66-.13-.22-.3-.41-.53-.56-.23-.16-.53-.24-.9-.24-.58,0-1.07.18-1.47.53-.4.36-.68.85-.84,1.48h4.09Z"/>
      <path class="st3" d="M153.12,18.83c0,.49.1.88.29,1.19.19.3.54.45,1.04.45.42,0,.74-.08.95-.23.21-.15.35-.26.42-.33.13-.13.23-.2.3-.2.09,0,.15.02.17.06.02.04.03.08.03.12,0,.11-.09.24-.26.4-.04.04-.12.12-.25.23-.13.11-.29.23-.48.35s-.43.22-.7.32c-.27.09-.58.14-.92.14-.42,0-.77-.06-1.05-.19-.28-.13-.49-.29-.65-.48-.16-.2-.27-.42-.34-.68-.07-.26-.1-.52-.1-.78v-5.71h-.93c-.07,0-.12-.02-.17-.07-.05-.05-.07-.1-.07-.17,0-.04.01-.08.04-.12.03-.04.09-.09.18-.14.22-.12.43-.26.63-.41.2-.16.4-.36.59-.59.16-.18.29-.37.4-.55.11-.18.2-.35.27-.49.07-.14.13-.25.19-.31.06-.06.12-.09.19-.09s.12.02.17.05.07.09.07.17v1.86h2.98l-.49.81h-2.49v5.41Z"/>
    </g>
    <g>
      <path class="st9" d="M167.54,19.07c0,.28.01.52.04.73.03.21.09.38.19.51.1.13.25.23.44.3.2.07.46.1.79.1.2,0,.33.02.39.07.06.05.09.1.09.17,0,.05-.02.11-.05.16-.03.05-.14.08-.31.08s-.45,0-.85-.02c-.39-.01-.97-.02-1.72-.02s-1.29,0-1.65.02c-.36.01-.63.02-.8.02s-.28-.03-.32-.08c-.04-.05-.06-.11-.06-.16,0-.07.03-.12.1-.17.07-.05.19-.07.38-.07.42,0,.75-.09.99-.26.24-.17.36-.5.36-.99v-10.37c0-.5-.12-.83-.36-1-.24-.16-.57-.25-.99-.25-.18,0-.31-.02-.38-.07-.07-.05-.1-.1-.1-.17s.02-.12.06-.17c.04-.05.14-.07.32-.07s.44,0,.8,0c.36,0,.91,0,1.65,0s1.32,0,1.72,0c.4,0,.68,0,.85,0s.27.02.31.07c.03.05.05.1.05.17s-.03.12-.09.17c-.06.05-.19.07-.39.07-.33,0-.59.03-.79.1-.2.07-.35.16-.44.3-.1.13-.16.3-.19.5-.03.2-.04.44-.04.72v9.6Z"/>
      <path class="st9" d="M175.21,19.46c0,.46.06.79.17,1,.11.2.34.31.68.31.16,0,.26.02.32.06.05.04.08.09.08.16s-.03.12-.08.15c-.05.03-.16.05-.32.05-.08,0-.19,0-.33,0-.14,0-.29,0-.44,0s-.32,0-.48,0c-.16,0-.31,0-.44,0-.26,0-.54,0-.84.02-.3.01-.54.02-.74.02-.25,0-.38-.07-.38-.2,0-.14.13-.22.4-.22.32,0,.54-.11.67-.34.13-.22.2-.59.2-1.11v-4.62c0-.3-.07-.52-.21-.65-.14-.13-.31-.24-.52-.34-.16-.08-.27-.14-.33-.19-.06-.05-.09-.1-.09-.15,0-.09.05-.16.16-.22l1.96-.67c.16-.04.27-.06.34-.06.16,0,.24.09.24.28v1.24c.11-.12.25-.26.43-.43.18-.17.4-.34.65-.5.25-.16.53-.3.84-.41.31-.11.65-.17,1.02-.17.83,0,1.5.3,2.02.89.51.59.77,1.44.77,2.55v3.54c0,.47.06.82.18,1.04.12.22.33.33.63.33.18,0,.3.02.36.06.05.04.08.1.08.18,0,.05-.02.1-.06.14s-.13.06-.28.06c-.12,0-.31,0-.57-.03-.26-.02-.59-.03-.97-.03s-.72,0-1.01.03c-.29.02-.54.03-.75.03-.17,0-.28-.02-.33-.06-.05-.04-.07-.09-.07-.14,0-.16.11-.24.34-.24.34,0,.58-.1.71-.29.13-.19.2-.5.2-.92v-3.34c0-.92-.17-1.63-.5-2.13-.34-.5-.85-.75-1.53-.75-.26,0-.51.05-.74.16-.23.11-.44.23-.63.37-.19.14-.35.28-.48.42-.13.15-.23.26-.3.36v4.82Z"/>
      <path class="st9" d="M187.58,21c-.49-.21-.91-.5-1.25-.88-.35-.38-.62-.82-.81-1.34-.19-.52-.29-1.08-.29-1.69,0-.67.12-1.29.35-1.86.23-.57.54-1.06.94-1.47.39-.41.86-.74,1.4-.98.54-.24,1.12-.36,1.74-.36.54,0,1.01.08,1.41.24.4.16.73.35,1,.56.26.22.46.44.59.67.13.23.2.42.2.58,0,.26-.08.46-.23.58-.15.13-.32.19-.5.19-.24,0-.42-.06-.53-.18s-.21-.27-.29-.44c-.07-.18-.14-.37-.2-.57-.06-.2-.15-.4-.26-.57-.11-.18-.27-.33-.46-.44-.2-.12-.47-.18-.83-.18-.32,0-.63.08-.94.24-.31.16-.59.4-.83.71s-.44.71-.6,1.2c-.16.48-.24,1.05-.24,1.71s.08,1.17.24,1.62.37.82.64,1.11c.27.29.58.5.94.63.36.13.72.2,1.11.2.41,0,.77-.07,1.08-.22.31-.14.57-.32.78-.51.21-.2.38-.39.5-.57.12-.18.21-.32.25-.4.08-.21.18-.32.3-.32.13,0,.2.08.2.24,0,.07-.07.25-.2.55-.13.3-.35.62-.64.96-.3.34-.68.64-1.16.91s-1.05.4-1.74.4c-.61,0-1.16-.11-1.66-.32Z"/>
      <path class="st9" d="M198.41,21.32c-.34,0-.63-.11-.85-.34s-.34-.5-.34-.83.11-.59.34-.81c.22-.22.51-.34.85-.34.32,0,.59.11.81.34.22.22.34.49.34.81s-.11.61-.34.83-.49.34-.81.34Z"/>
    </g>
  </g>
  <g>
    <circle class="st6" cx="16.52" cy="14.77" r="12.53"/>
    <g>
      <path class="st2" d="M7.89,20.65c-.07.08-.16.12-.25.12-.11,0-.18-.08-.19-.24l-.08-1.63c-.02-.41-.04-.78-.07-1.1-.03-.32-.04-.5-.04-.55,0-.13.07-.19.22-.19.05,0,.1.01.15.04.05.03.08.09.09.18.02.1.07.31.16.62.08.31.23.65.44,1.01.12.19.27.39.42.57.16.19.34.35.55.5.21.14.44.26.71.34.27.09.56.13.9.13.56,0,1.01-.09,1.33-.27.33-.18.58-.4.75-.64.17-.25.28-.5.33-.77.05-.27.07-.49.07-.66,0-.41-.08-.76-.25-1.05-.17-.29-.4-.54-.69-.76-.3-.22-.65-.42-1.05-.59-.41-.17-.85-.35-1.33-.55-.31-.13-.63-.27-.94-.42-.32-.15-.6-.35-.86-.57-.25-.23-.46-.51-.62-.85-.16-.34-.23-.75-.23-1.24,0-.65.12-1.21.37-1.67.25-.46.56-.84.94-1.13s.78-.51,1.21-.64c.43-.14.83-.21,1.19-.21s.68.04.96.11c.28.07.51.16.72.26.2.1.37.18.51.26.14.07.25.11.34.11.06,0,.11-.02.16-.06.04-.04.08-.08.12-.13.04-.05.08-.09.12-.13.04-.04.09-.06.16-.06.11,0,.17.07.17.21,0,.1,0,.32.02.64.01.33.03.67.05,1.04.02.33.04.63.06.91.02.27.03.47.03.58,0,.07-.02.11-.05.14-.04.02-.08.03-.13.03-.07,0-.12-.01-.15-.04-.03-.03-.05-.1-.07-.21-.15-.62-.32-1.13-.51-1.54-.2-.41-.42-.74-.68-.98-.25-.24-.53-.41-.83-.51s-.62-.15-.97-.15c-.31,0-.61.07-.89.2-.28.13-.53.31-.75.53-.22.22-.39.48-.51.78-.12.3-.19.61-.19.94,0,.37.06.68.18.93.12.25.28.46.48.63s.44.31.71.43c.27.11.56.22.87.33.44.15.88.31,1.34.49.46.18.87.41,1.23.69.36.29.66.63.9,1.05.23.41.35.93.35,1.54,0,.5-.09.97-.27,1.4-.18.43-.44.8-.78,1.12-.34.32-.74.57-1.22.75s-1,.27-1.58.27c-.55,0-1-.07-1.35-.21-.35-.14-.58-.23-.69-.27-.18-.09-.31-.17-.4-.24-.09-.07-.17-.1-.24-.1-.06,0-.11.03-.15.09-.04.06-.07.12-.1.16l-.16.26Z"/>
      <path class="st10" d="M17.47,18.85c0,.24.01.45.03.63.02.18.07.33.15.45.08.11.19.2.35.26.16.06.36.09.62.09.16,0,.26.02.3.06.05.04.07.09.07.15,0,.05-.01.09-.04.14s-.11.07-.24.07-.36,0-.67-.02c-.31-.01-.76-.02-1.36-.02s-1.02,0-1.3.02c-.29.01-.5.02-.63.02s-.22-.02-.25-.07-.05-.09-.05-.14c0-.06.03-.11.08-.15.05-.04.15-.06.3-.06.33,0,.59-.07.78-.22.19-.15.28-.43.28-.86v-9.01c0-.43-.09-.72-.28-.87-.19-.14-.45-.21-.78-.21-.15,0-.24-.02-.3-.06-.05-.04-.08-.09-.08-.15s.02-.11.05-.15c.03-.04.11-.06.25-.06s.35,0,.63,0c.29,0,.72,0,1.3,0s1.04,0,1.36,0c.31,0,.54,0,.67,0s.22.02.24.06c.03.04.04.09.04.15s-.02.11-.07.15c-.05.04-.15.06-.3.06-.26,0-.47.03-.62.09-.16.06-.27.14-.35.26-.08.11-.13.26-.15.44-.02.18-.03.39-.03.63v4.41l3.42-3.64c.11-.11.23-.23.34-.35.11-.12.22-.24.31-.36.09-.12.17-.25.23-.38.06-.13.09-.27.09-.42,0-.23-.08-.4-.23-.51-.15-.11-.31-.16-.49-.16-.15,0-.24-.03-.3-.08-.05-.05-.08-.1-.08-.15,0-.13.07-.19.2-.19.17,0,.39,0,.67,0,.28,0,.63,0,1.06,0s.8,0,1.16,0c.36,0,.63,0,.82,0,.16,0,.23.06.23.19,0,.05-.02.09-.05.14-.03.05-.11.07-.25.09-.1.01-.25.05-.43.1-.18.06-.35.13-.51.22-.19.11-.38.26-.59.44-.21.18-.42.37-.64.58-.22.21-.43.43-.65.64-.21.22-.41.42-.58.62l-1.86,1.99,4.06,5.37c.26.34.57.62.94.84.36.22.71.34,1.03.36.18.01.27.09.27.22,0,.05-.02.09-.06.15-.04.05-.11.08-.2.08-.23,0-.47-.01-.73-.03-.25-.02-.49-.03-.69-.03h-.67c-.23,0-.45,0-.67.02l-4.4-5.78-.76.81v3.16Z"/>
    </g>
  </g>
</svg>